<?xml version="1.0" standalone="no"?>
<!DOCTYPE svg PUBLIC "-//W3C//DTD SVG 20010904//EN"
 "http://www.w3.org/TR/2001/REC-SVG-20010904/DTD/svg10.dtd">
<svg version="1.0" xmlns="http://www.w3.org/2000/svg"
 width="800.000000pt" height="282.000000pt" viewBox="0 0 800.000000 282.000000"
 preserveAspectRatio="xMidYMid meet">

<g transform="translate(0.000000,282.000000) scale(0.100000,-0.100000)"
fill="#000000" stroke="none">
<path d="M4355 2563 c-173 -22 -331 -89 -420 -178 -98 -99 -141 -218 -133
-366 12 -193 112 -314 324 -395 38 -14 164 -50 279 -80 247 -63 342 -104 382
-165 76 -115 11 -246 -147 -293 -77 -23 -241 -21 -319 3 -64 20 -119 55 -158
100 -28 33 -63 122 -63 161 l0 30 -181 0 -181 0 7 -67 c20 -201 128 -354 310
-444 139 -68 213 -83 415 -83 146 1 188 4 255 22 120 33 236 94 304 160 187
183 195 502 18 675 -94 92 -192 134 -486 207 -310 77 -380 110 -401 191 -22
81 18 162 103 206 49 26 60 28 172 28 113 -1 124 -2 180 -30 75 -37 119 -93
135 -171 l12 -55 176 3 176 3 -3 49 c-11 180 -109 325 -275 406 -138 68 -335
102 -481 83z"/>
<path d="M2605 2549 c-403 -58 -670 -380 -692 -835 -16 -335 113 -634 345
-796 69 -47 200 -104 287 -124 115 -27 311 -25 425 5 368 94 592 391 614 813
9 160 -35 380 -101 513 -157 313 -499 479 -878 424z m247 -310 c166 -35 286
-164 340 -368 26 -99 28 -303 4 -405 -52 -217 -184 -349 -379 -377 -259 -38
-460 115 -518 394 -50 245 5 509 136 642 102 104 259 147 417 114z"/>
<path d="M5380 1680 l0 -880 210 0 210 0 0 880 0 880 -210 0 -210 0 0 -880z
m380 742 l0 -94 -170 3 -170 3 0 91 0 90 170 0 170 0 0 -93z m0 -652 l0 -190
-170 0 -170 0 0 190 0 190 170 0 170 0 0 -190z m0 -664 l0 -93 -27 -6 -28 -5
3 -81 4 -81 -146 0 -146 0 0 180 0 180 170 0 170 0 0 -94z"/>
<path d="M790 2536 c-171 -36 -282 -96 -406 -220 -80 -80 -98 -104 -142 -196
-212 -438 -102 -974 248 -1212 145 -98 284 -138 484 -138 90 0 144 5 202 20
207 52 370 181 458 361 42 87 86 233 86 287 0 22 0 22 -179 22 l-179 0 -7 -47
c-10 -70 -66 -181 -116 -232 -82 -82 -203 -119 -333 -100 -252 35 -398 243
-398 569 -1 246 63 406 204 512 114 86 301 104 430 40 101 -49 179 -141 202
-236 l7 -28 174 3 175 4 0 26 c0 36 -37 153 -67 214 -79 158 -233 280 -425
336 -94 27 -320 35 -418 15z"/>
<path d="M6378 2533 l-268 -3 0 -851 0 -850 488 3 c469 4 490 5 560 26 237 72
358 208 378 422 20 212 -88 398 -268 461 -21 7 -38 15 -37 19 0 3 28 23 61 45
109 71 158 171 158 320 0 215 -103 340 -320 390 -84 19 -291 24 -752 18z m561
-294 c93 -20 145 -73 157 -160 9 -68 -11 -128 -60 -174 -58 -57 -104 -65 -352
-65 l-204 0 0 205 0 205 205 0 c112 0 227 -5 254 -11z m108 -676 c133 -71 166
-266 63 -374 -53 -56 -105 -66 -365 -73 -121 -3 -230 -3 -242 0 l-23 6 0 235
0 234 263 -3 c248 -3 264 -4 304 -25z"/>
<path d="M6075 560 c-10 -16 3 -184 14 -188 7 -2 11 31 11 97 0 91 -8 119 -25
91z"/>
<path d="M6227 563 c-4 -3 -7 -48 -7 -100 l0 -93 53 0 c28 0 63 6 77 13 31 15
37 52 14 78 -13 15 -15 22 -6 31 19 19 14 45 -10 62 -22 16 -108 22 -121 9z
m111 -47 c5 -24 -14 -36 -55 -36 -30 0 -33 3 -33 31 0 29 1 30 42 27 33 -2 44
-8 46 -22z m10 -83 c4 -26 -27 -46 -66 -41 -22 2 -28 9 -30 36 l-3 33 48 -3
c41 -3 48 -6 51 -25z"/>
<path d="M6417 564 c-8 -8 1 -24 14 -24 5 0 9 7 9 15 0 15 -12 20 -23 9z"/>
<path d="M4820 525 c0 -39 -2 -40 -30 -23 -17 11 -25 10 -48 -2 -21 -12 -28
-24 -30 -55 -4 -49 15 -77 51 -76 86 3 77 -8 77 97 0 56 -4 94 -10 94 -5 0
-10 -16 -10 -35z m-16 -51 c9 -8 16 -25 16 -36 0 -24 -27 -58 -46 -58 -16 0
-44 39 -44 62 0 20 26 48 45 48 7 0 21 -7 29 -16z"/>
<path d="M7100 543 c0 -11 -5 -24 -12 -31 -9 -9 -9 -12 0 -12 6 0 12 -23 14
-57 3 -56 4 -58 33 -61 26 -2 28 -1 13 11 -9 7 -17 31 -19 57 -3 35 0 44 16
50 13 4 15 9 7 14 -7 4 -12 4 -13 -1 -1 -4 -4 3 -8 16 -8 30 -31 40 -31 14z"/>
<path d="M421 536 c-61 -35 -68 -130 -12 -173 26 -20 88 -16 111 7 20 20 27
50 11 50 -5 0 -16 -11 -25 -25 -11 -17 -26 -25 -46 -25 -59 0 -82 89 -35 135
30 31 33 31 75 0 38 -28 55 -16 24 16 -25 25 -73 32 -103 15z"/>
<path d="M1106 543 c-3 -3 -6 -19 -6 -34 0 -26 -2 -27 -39 -22 -34 5 -41 2
-57 -22 -38 -58 21 -142 76 -107 12 7 21 8 25 2 17 -28 25 -1 25 84 0 87 -7
116 -24 99z m-11 -117 c0 -46 -24 -68 -52 -50 -21 13 -27 36 -19 70 6 21 12
25 39 22 30 -3 32 -5 32 -42z"/>
<path d="M1700 535 c0 -8 7 -15 15 -15 8 0 15 7 15 15 0 8 -7 15 -15 15 -8 0
-15 -7 -15 -15z"/>
<path d="M1825 539 c-12 -19 5 -23 22 -6 16 16 16 17 1 17 -9 0 -20 -5 -23
-11z"/>
<path d="M2270 515 c0 -33 -2 -35 -21 -25 -31 17 -65 4 -79 -30 -25 -60 23
-125 75 -102 14 6 32 9 40 6 13 -5 15 8 15 90 0 79 -3 96 -15 96 -11 0 -15
-11 -15 -35z m-12 -47 c17 -17 15 -73 -3 -88 -12 -10 -21 -10 -40 -2 -43 20
-30 102 15 102 9 0 21 -5 28 -12z"/>
<path d="M2588 539 c-22 -12 -23 -52 -3 -72 7 -8 30 -18 49 -21 57 -11 73 -57
23 -70 -22 -6 -67 17 -67 34 0 6 -7 10 -15 10 -19 0 -19 -10 0 -37 30 -42 111
-38 135 7 18 33 -9 65 -65 79 -39 10 -46 15 -43 34 4 28 56 37 70 13 9 -17 38
-22 38 -8 0 34 -83 54 -122 31z"/>
<path d="M3140 540 c0 -5 7 -10 15 -10 8 0 15 5 15 10 0 6 -7 10 -15 10 -8 0
-15 -4 -15 -10z"/>
<path d="M3365 540 c3 -5 10 -10 16 -10 5 0 9 5 9 10 0 6 -7 10 -16 10 -8 0
-12 -4 -9 -10z"/>
<path d="M3820 455 c0 -78 3 -95 15 -95 12 0 15 17 15 95 0 78 -3 95 -15 95
-12 0 -15 -17 -15 -95z"/>
<path d="M4066 543 c-3 -3 -6 -14 -6 -24 0 -9 -6 -20 -12 -23 -10 -5 -10 -7 0
-12 7 -3 12 -25 12 -54 0 -39 4 -52 20 -60 25 -13 50 -2 26 12 -23 13 -22 86
2 104 16 13 16 13 0 14 -11 0 -18 8 -18 19 0 21 -13 34 -24 24z"/>
<path d="M1170 530 c0 -5 5 -10 10 -10 6 0 10 5 10 10 0 6 -4 10 -10 10 -5 0
-10 -4 -10 -10z"/>
<path d="M6495 495 c-14 -13 -25 -36 -25 -50 0 -30 41 -75 68 -75 24 0 70 35
60 46 -5 4 -16 0 -26 -9 -22 -20 -43 -22 -60 -5 -26 26 -13 38 38 38 41 0 50
3 50 18 0 23 -10 37 -37 51 -31 16 -41 14 -68 -14z m69 -11 c22 -22 11 -34
-30 -34 -35 0 -44 16 -22 38 16 16 34 15 52 -4z"/>
<path d="M6680 510 c-8 -5 -23 -7 -32 -4 -16 5 -18 -2 -18 -60 0 -51 3 -66 14
-66 11 0 16 15 18 51 6 95 68 93 68 -2 0 -27 5 -49 10 -49 6 0 10 27 10 60 0
48 -4 61 -19 70 -24 12 -32 12 -51 0z"/>
<path d="M6824 510 c-28 -11 -46 -63 -34 -95 9 -25 38 -45 63 -45 20 0 64 37
55 46 -5 4 -16 0 -26 -9 -25 -22 -49 -21 -62 2 -15 30 -14 31 46 31 53 0 55 1
49 23 -13 42 -52 63 -91 47z m47 -20 c32 -18 23 -40 -15 -40 -41 0 -52 12 -30
34 18 19 20 19 45 6z"/>
<path d="M6960 502 c-32 -26 -21 -48 30 -62 30 -8 40 -16 38 -28 -4 -22 -41
-27 -58 -7 -16 19 -30 19 -30 0 0 -40 103 -44 115 -4 8 26 -9 46 -46 54 -34 8
-46 22 -30 38 8 8 18 7 36 -3 25 -14 46 -7 29 9 -21 21 -60 22 -84 3z"/>
<path d="M7195 504 c-22 -22 -11 -30 19 -14 27 14 60 7 54 -12 -3 -7 -21 -18
-42 -23 -57 -16 -70 -45 -32 -70 17 -11 30 -13 48 -6 14 5 30 5 40 0 18 -10
35 5 18 16 -5 3 -10 30 -10 60 0 39 -4 54 -16 59 -28 11 -62 6 -79 -10z m75
-73 c0 -26 -25 -44 -50 -36 -28 9 -22 37 10 46 38 11 40 10 40 -10z"/>
<path d="M7339 519 c0 -2 -1 -34 -2 -72 -1 -48 2 -67 11 -67 8 0 12 16 12 44
0 36 5 48 27 65 14 12 23 24 20 28 -4 3 -13 0 -22 -7 -12 -10 -18 -10 -30 0
-8 7 -15 11 -16 9z"/>
<path d="M3941 501 c-7 -5 -22 -6 -32 -4 -17 5 -19 -1 -19 -61 0 -51 3 -66 14
-66 11 0 16 15 18 51 6 95 68 93 68 -2 0 -27 5 -49 10 -49 6 0 10 27 10 60 0
48 -4 61 -19 70 -24 12 -32 12 -50 1z"/>
<path d="M4172 498 c-44 -22 -44 -103 1 -128 24 -13 30 -13 54 0 14 8 29 22
31 30 4 11 0 11 -21 -3 -34 -22 -54 -22 -67 2 -15 30 -14 31 45 31 63 0 71 15
30 55 -26 27 -38 29 -73 13z m56 -20 c22 -22 13 -38 -22 -38 -41 0 -52 12 -30
34 18 19 36 20 52 4z"/>
<path d="M4315 485 c-29 -28 -32 -61 -9 -93 17 -24 62 -30 82 -10 9 9 12 8 12
-4 0 -33 -12 -48 -39 -48 -15 0 -32 5 -39 12 -14 14 -27 4 -17 -12 15 -24 55
-31 86 -15 29 15 29 16 29 101 0 80 -1 85 -19 79 -11 -3 -22 -1 -26 5 -10 17
-35 11 -60 -15z m67 -12 c23 -21 23 -55 -1 -77 -43 -39 -87 35 -49 82 14 16
28 15 50 -5z"/>
<path d="M4504 493 c-13 -13 -19 -14 -22 -5 -2 6 -8 12 -13 12 -6 0 -9 -29 -7
-67 3 -78 21 -87 28 -16 4 37 10 50 28 58 12 5 22 15 22 22 0 18 -16 16 -36
-4z"/>
<path d="M4574 496 c-26 -19 -10 -33 20 -16 27 14 60 7 54 -12 -3 -7 -20 -16
-39 -21 -63 -16 -77 -45 -35 -72 17 -11 30 -13 48 -6 14 5 30 5 40 0 18 -10
35 5 18 16 -5 3 -10 28 -10 54 0 26 -5 52 -12 59 -16 16 -60 15 -84 -2z m76
-76 c0 -23 -32 -43 -55 -34 -23 9 -14 37 15 45 38 11 40 10 40 -11z"/>
<path d="M4900 490 c-20 -20 -27 -74 -12 -97 13 -20 60 -33 86 -23 31 11 38
23 39 67 2 63 -70 96 -113 53z m84 -33 c11 -31 2 -53 -28 -71 -14 -9 -21 -6
-37 13 -23 28 -24 54 -3 76 24 24 57 15 68 -18z"/>
<path d="M5056 494 c-9 -8 -16 -19 -16 -24 0 -17 32 -40 54 -40 32 0 51 -23
32 -39 -16 -13 -56 -6 -56 10 0 5 -7 9 -16 9 -23 0 -12 -23 19 -38 22 -11 32
-11 54 0 29 14 41 44 25 60 -6 6 -25 13 -43 17 -18 4 -34 12 -37 19 -6 18 28
27 50 13 25 -15 35 -7 18 14 -16 20 -64 19 -84 -1z"/>
<path d="M5270 413 c0 -55 4 -93 10 -93 6 0 10 13 10 29 0 28 1 29 42 24 49
-7 68 11 68 67 0 51 -24 70 -83 68 l-47 -2 0 -93z m104 44 c13 -36 -2 -61 -37
-65 -36 -4 -56 35 -39 74 17 36 63 30 76 -9z"/>
<path d="M5450 495 c-16 -20 -5 -32 14 -16 19 16 61 10 61 -8 0 -9 -18 -19
-45 -25 -30 -7 -46 -17 -48 -29 -7 -33 16 -46 79 -45 42 1 57 4 50 11 -6 6
-11 32 -11 57 0 25 -5 51 -12 58 -17 17 -73 15 -88 -3z m80 -64 c0 -26 -15
-41 -40 -41 -31 0 -43 10 -32 26 13 21 72 32 72 15z"/>
<path d="M5590 440 c0 -54 3 -70 14 -70 11 0 16 15 18 53 2 43 7 54 26 62 12
5 22 13 22 17 0 12 -25 9 -39 -4 -11 -10 -14 -10 -18 0 -12 32 -23 5 -23 -58z"/>
<path d="M5700 495 c-16 -20 -5 -32 14 -16 19 16 61 10 61 -8 0 -9 -18 -19
-45 -25 -30 -7 -46 -17 -48 -29 -7 -33 16 -46 79 -45 42 1 57 4 50 11 -6 6
-11 32 -11 57 0 25 -5 51 -12 58 -17 17 -73 15 -88 -3z m76 -67 c-3 -25 -18
-38 -41 -38 -41 0 -41 32 0 43 35 8 43 7 41 -5z"/>
<path d="M5936 494 c-27 -27 -31 -63 -9 -92 26 -35 72 -41 98 -12 20 22 6 27
-25 8 -23 -15 -53 -2 -58 26 -3 13 6 16 52 16 31 0 56 4 56 9 0 4 -9 20 -21
35 -24 30 -69 35 -93 10z m68 -10 c25 -25 19 -34 -24 -34 -43 0 -55 20 -22 39
23 14 28 14 46 -5z"/>
<path d="M6410 445 c0 -51 3 -65 15 -65 12 0 15 14 15 65 0 51 -3 65 -15 65
-12 0 -15 -14 -15 -65z"/>
<path d="M1583 490 c-67 -27 -48 -140 24 -140 26 0 74 41 55 48 -7 2 -19 -4
-28 -12 -31 -32 -64 -11 -64 40 0 17 7 37 15 44 15 12 55 5 55 -11 0 -5 7 -9
15 -9 32 0 9 32 -30 43 -11 3 -30 2 -42 -3z"/>
<path d="M1803 490 c-26 -11 -43 -40 -43 -74 0 -27 41 -66 70 -66 10 0 29 9
44 21 61 48 2 148 -71 119z m57 -25 c27 -33 7 -95 -30 -95 -24 0 -42 24 -42
55 0 31 18 55 42 55 10 0 23 -7 30 -15z"/>
<path d="M1980 490 c-8 -5 -23 -7 -33 -4 -16 5 -18 -1 -15 -63 4 -81 21 -90
28 -14 9 101 70 91 70 -11 0 -26 5 -48 10 -48 6 0 10 28 10 65 0 53 -3 66 -19
75 -24 12 -32 12 -51 0z"/>
<path d="M2355 475 c-32 -31 -32 -69 1 -101 27 -28 64 -27 93 1 23 23 7 27
-27 8 -25 -14 -32 -15 -46 -4 -31 26 -19 41 34 41 43 0 50 3 50 20 0 26 -34
60 -60 60 -12 0 -32 -11 -45 -25z m71 -12 c17 -17 16 -18 -20 -21 -45 -4 -54
2 -36 23 16 20 35 19 56 -2z"/>
<path d="M2766 484 c-25 -24 -31 -64 -15 -93 19 -33 77 -41 104 -14 23 22 3
30 -26 9 -25 -17 -59 -6 -59 19 0 11 13 15 50 15 43 0 50 3 50 20 0 48 -71 78
-104 44z m72 -16 c21 -21 13 -28 -28 -28 -43 0 -43 0 -34 24 7 19 45 21 62 4z"/>
<path d="M2900 430 c0 -56 3 -70 15 -70 11 0 15 12 15 49 0 49 10 66 43 73 15
2 24 -10 41 -57 14 -35 30 -61 39 -63 10 -2 17 -1 17 1 0 3 11 34 25 71 20 52
22 66 11 66 -9 0 -21 -22 -32 -57 -18 -62 -15 -63 -48 20 -12 31 -20 37 -43
37 -16 0 -35 -6 -42 -12 -11 -10 -14 -10 -18 0 -12 32 -23 5 -23 -58z"/>
<path d="M3147 493 c-4 -3 -7 -35 -7 -70 0 -49 3 -63 15 -63 12 0 15 14 15 70
0 64 -6 81 -23 63z"/>
<path d="M3228 483 c-53 -61 -10 -138 66 -119 13 3 27 13 30 22 10 27 -2 29
-29 4 -24 -23 -25 -23 -45 -5 -22 20 -27 64 -8 83 15 15 58 16 58 2 0 -5 7
-10 15 -10 21 0 19 17 -4 30 -30 15 -66 12 -83 -7z"/>
<path d="M3364 484 c3 -9 6 -40 6 -70 0 -30 5 -54 10 -54 6 0 10 30 10 70 0
58 -3 70 -16 70 -11 0 -14 -5 -10 -16z"/>
<path d="M3446 484 c-44 -43 -19 -116 42 -122 61 -6 99 80 54 121 -23 21 -76
22 -96 1z m90 -38 c12 -50 -40 -88 -74 -54 -20 20 -14 65 10 82 26 19 55 6 64
-28z"/>
<path d="M3599 484 c-18 -22 -2 -44 41 -58 42 -13 46 -40 8 -44 -16 -2 -28 1
-28 7 0 6 -7 11 -16 11 -23 0 -11 -24 18 -34 35 -12 75 0 83 25 7 22 -10 49
-31 49 -7 0 -25 5 -41 11 -27 10 -27 11 -9 24 13 10 24 11 37 5 28 -16 44 -13
29 5 -16 20 -74 19 -91 -1z"/>
<path d="M590 470 c-24 -24 -26 -67 -4 -98 11 -16 25 -22 54 -22 29 0 43 6 54
22 36 51 5 118 -54 118 -17 0 -39 -9 -50 -20z m78 -12 c13 -13 16 -57 4 -74
-13 -19 -41 -23 -57 -8 -30 31 -13 94 25 94 9 0 21 -5 28 -12z"/>
<path d="M757 472 c-21 -23 -22 -86 -1 -106 21 -22 77 -20 97 2 23 25 22 85
-1 105 -25 22 -75 21 -95 -1z m83 -23 c15 -26 5 -66 -19 -78 -41 -23 -84 52
-49 87 19 19 56 14 68 -9z"/>
<path d="M900 458 c0 -50 12 -108 21 -108 5 0 9 18 9 41 0 47 14 79 35 79 8 0
15 5 15 10 0 14 -23 13 -38 -2 -9 -9 -12 -9 -12 0 0 7 -7 12 -15 12 -10 0 -15
-10 -15 -32z"/>
<path d="M1170 419 c0 -46 4 -69 11 -67 6 2 10 7 10 11 -1 4 -1 34 -1 67 0 33
-4 60 -10 60 -6 0 -10 -30 -10 -71z"/>
<path d="M1232 422 c4 -86 26 -97 30 -15 3 57 3 58 33 58 30 0 30 -1 33 -57 2
-32 7 -58 13 -58 6 0 9 27 7 68 l-3 67 -58 1 -58 1 3 -65z"/>
<path d="M1402 478 c-16 -16 -15 -28 3 -28 8 0 15 5 15 10 0 6 14 10 31 10 41
0 36 -32 -7 -41 -44 -8 -54 -17 -54 -44 0 -27 16 -33 86 -33 l40 1 -4 56 c-2
31 -9 62 -14 69 -13 15 -80 16 -96 0z m76 -80 c-3 -26 -43 -37 -62 -18 -8 8
-6 15 8 26 31 22 58 18 54 -8z"/>
<path d="M1702 423 c2 -42 8 -68 16 -71 9 -3 12 15 12 67 0 57 -3 71 -15 71
-13 0 -15 -12 -13 -67z"/>
</g>
</svg>
